<?xml version="1.0" encoding="UTF-8" standalone="no"?>
<!-- Created with Inkscape (http://www.inkscape.org/) -->

<svg
   width="320.11731"
   height="326.03952"
   viewBox="0 0 84.697702 86.264627"
   version="1.1"
   id="svg5"
   inkscape:version="1.1.1 (3bf5ae0d25, 2021-09-20)"
   sodipodi:docname="logobg.svg"
   xmlns:inkscape="http://www.inkscape.org/namespaces/inkscape"
   xmlns:sodipodi="http://sodipodi.sourceforge.net/DTD/sodipodi-0.dtd"
   xmlns="http://www.w3.org/2000/svg"
   xmlns:svg="http://www.w3.org/2000/svg">
  <sodipodi:namedview
     id="namedview7"
     pagecolor="#ffffff"
     bordercolor="#666666"
     borderopacity="1.0"
     inkscape:pageshadow="2"
     inkscape:pageopacity="0.0"
     inkscape:pagecheckerboard="true"
     inkscape:document-units="px"
     showgrid="false"
     units="px"
     showborder="false"
     inkscape:zoom="1.8058248"
     inkscape:cx="129.85756"
     inkscape:cy="174.71241"
     inkscape:window-width="3440"
     inkscape:window-height="1417"
     inkscape:window-x="1912"
     inkscape:window-y="-8"
     inkscape:window-maximized="1"
     inkscape:current-layer="layer1"
     fit-margin-top="0"
     fit-margin-left="0"
     fit-margin-right="0"
     fit-margin-bottom="0" />
  <defs
     id="defs2" />
  <g
     inkscape:label="Layer 1"
     inkscape:groupmode="layer"
     id="layer1"
     transform="translate(-19.620338,359.69528)">
    <rect
       style="fill:#eeeeee;fill-opacity:1;stroke:none;stroke-width:0.548746"
       id="rect851"
       width="101.69653"
       height="97.350517"
       x="8.5380249"
       y="-364.69318"
       ry="0" />
    <g
       id="g14195"
       transform="matrix(0.80057089,0,0,0.80057089,-7.1346082,-218.29517)"
       style="stroke-width:1.00013;stroke-miterlimit:4;stroke-dasharray:none">
      <g
         id="g14193"
         style="stroke-width:1.00013;stroke-miterlimit:4;stroke-dasharray:none">
        <path
           id="path21384"
           style="color:#000000;display:inline;fill:#31cba4;stroke-width:3.78002;-inkscape-stroke:none"
           d="m 302.17773,-708.68164 c -85.63667,0 -155.18359,69.53695 -155.18359,155.17383 0,85.6368 69.54672,155.18164 155.18359,155.18164 85.63682,0 155.18172,-69.54484 155.18165,-155.18164 0,-85.63688 -69.54494,-155.17383 -155.18165,-155.17383 z m 0,11.77344 c 79.2707,0 143.40821,64.1299 143.40821,143.40039 0,79.27049 -64.13766,143.4082 -143.40821,143.4082 -79.27044,0 -143.4082,-64.13775 -143.4082,-143.4082 0,-79.27045 64.13754,-143.40039 143.4082,-143.40039 z"
           transform="matrix(0.26458333,0,0,0.26458333,7.408333,16.933334)" />
        <path
           id="path21472"
           style="color:#000000;display:inline;fill:#31cba4;stroke-width:3.78002;-inkscape-stroke:none"
           d="m 402.20117,-728.98242 c -46.20245,0 -83.77734,37.58078 -83.77734,83.7832 0,46.20234 37.57534,83.77149 83.77734,83.77149 46.20208,0 83.77735,-37.56922 83.77735,-83.77149 0,-46.20234 -37.57489,-83.7832 -83.77735,-83.7832 z m 0,11.78125 c 39.83615,0 72.00391,32.16569 72.00391,72.00195 0,39.83615 -32.16776,72.00391 -72.00391,72.00391 -39.83618,0 -71.99414,-32.1675 -71.99414,-72.00391 0,-39.83648 32.15796,-72.00199 71.99414,-72.00195 z"
           transform="matrix(0.26458333,0,0,0.26458333,7.408333,16.933334)" />
        <path
           id="path21296"
           style="color:#000000;display:inline;fill:#31cba4;stroke-width:1.00013;-inkscape-stroke:none"
           d="m 98.282694,-127.38271 c -6.031515,0 -10.949201,4.91993 -10.949201,10.95127 0,6.03132 4.9179,10.94921 10.949201,10.9492 6.031286,0 10.951266,-4.91773 10.951266,-10.9492 0,-6.03148 -4.91974,-10.95127 -10.951266,-10.95127 z m 0,3.11557 c 4.347386,0 7.835696,3.48827 7.835696,7.8357 0,4.34743 -3.48803,7.83415 -7.835696,7.83415 -4.347649,0 -7.836212,-3.48672 -7.836212,-7.83415 0,-4.34743 3.488828,-7.8357 7.836212,-7.8357 z" />
        <path
           id="path21208"
           style="color:#000000;display:inline;fill:#31cba4;stroke-width:3.78002;-inkscape-stroke:none"
           d="m 384.75781,-678.04102 -0.76758,0.18555 -0.39843,0.0957 c -91.99354,21.38147 -160.5625,103.91478 -160.5625,202.35938 0,17.66483 2.214,34.81977 6.36914,51.20117 l 0.27344,1.13672 1.02734,0.61914 c 2.44369,1.48989 4.92168,2.90527 7.44726,4.25195 h 0.008 l 6.00976,3.18946 -1.875,-6.53907 c -4.87767,-17.11084 -7.48633,-35.17074 -7.48633,-53.85937 0,-94.98958 67.46516,-174.09834 157.09375,-192.12109 l 6.68164,-1.34375 -5.5957,-3.86719 c -2.34833,-1.62161 -4.75383,-3.18723 -7.20508,-4.67969 l -0.0156,-0.008 z"
           transform="matrix(0.26458333,0,0,0.26458333,7.408333,16.933334)" />
        <path
           style="color:#000000;fill:#8b546a;fill-opacity:1;stroke:#8b546a;stroke-width:0.548746;stroke-miterlimit:4;stroke-dasharray:none;stroke-opacity:1"
           d="m 46.700211,-136.45484 -1.16962,1.54397 c 0,0 -6.876851,9.58844 -12.027552,14.8245 l -0.0311,0.0306 -0.03646,0.0434 c -1.904342,2.13571 -2.946404,3.69789 -2.967365,5.36827 -0.01138,0.91906 0.400685,1.76646 1.060042,2.31033 0.608802,0.5022 1.311895,0.72677 1.970564,0.85908 1.326223,0.26642 2.777164,0.20859 4.104575,0.16077 0.796035,-0.0287 1.329249,-0.008 1.889639,0.006 -0.03208,0.0537 -0.0458,0.0907 -0.08092,0.14631 -0.74756,1.18433 -2.122732,2.89973 -3.253546,4.67694 -1.117676,1.75656 -2.249871,3.75089 -1.705817,5.88542 0.286399,1.123671 1.107554,2.070402 2.247629,2.654929 0.107135,0.05493 0.232157,0.08136 0.345132,0.127013 -1.802693,0.648081 -3.385374,1.998253 -3.575632,3.953448 -0.113487,1.166427 0.42998,2.350464 1.443758,3.152258 0.933655,0.738419 2.211706,1.198558 3.861272,1.481269 -0.01084,-0.01446 0.0474,0.178603 0.01446,0.434629 -0.06862,0.531771 -0.519866,1.522636 -0.96465,2.043446 l 0.01876,-0.02091 c -2.99535,3.148789 -4.726554,7.520279 -3.304992,11.443406 0.718201,1.982075 2.264087,3.72075 4.57779,4.909525 2.307042,1.185348 5.35942,1.868347 9.301889,1.944839 10.43837,0.202491 16.422963,-2.25834 20.734041,-4.766436 0.0077,-0.0047 0.01397,-0.0082 0.02626,-0.01555 0.0068,-0.0043 0.03178,-0.01768 0.015,-0.0085 -0.002,9.29e-4 0.0038,-0.0024 0.0017,-9.29e-4 l 5.68e-4,-4.74e-4 c 3.007841,-1.654922 10.026723,-6.381979 13.753771,-11.028088 l -0.0043,-0.0043 c 0.124793,-0.115962 0.238483,-0.231625 0.370313,-0.390881 0.171929,-0.207696 0.37626,-0.469915 0.613089,-0.783506 0.473801,-0.627379 1.076914,-1.460961 1.767984,-2.435738 1.3821,-1.949492 3.114186,-4.462114 4.828601,-6.972798 3.426956,-5.018641 6.160886,-9.013312 6.439002,-9.411752 l 0.617818,-0.98437 -0.736464,-0.0873 c -0.845226,-0.0944 -1.849259,-0.32822 -2.263227,-0.48573 l -0.373659,-0.1367 -0.273289,0.36676 c -0.303768,0.42719 -0.45887,0.65782 -0.67701,0.98592 -3.525742,5.269991 -6.409128,9.631779 -10.049495,14.750541 -0.673795,0.945733 -1.269992,1.760125 -1.739578,2.367141 -0.233352,0.301641 -0.442343,0.556716 -0.605585,0.744922 -0.163244,0.188205 -0.30984,0.327151 -0.29797,0.317797 l -0.07342,0.05734 -0.05413,0.06967 c -3.113682,3.88773 -10.328485,8.876221 -12.825531,10.246706 l -0.0037,0.0014 -0.04126,0.02413 -0.0054,0.0028 c -4.011704,2.33893 -9.131594,4.538227 -19.081275,4.345208 -3.597467,-0.06979 -6.174645,-0.706719 -7.888678,-1.587382 -1.721894,-0.884699 -2.584098,-1.946841 -3.015061,-3.13618 -0.848226,-2.340897 0.235546,-5.639234 2.637239,-8.146988 l 0.0011,-0.0011 0.01233,-0.01181 0.01125,-0.01393 0.01446,-0.01446 0.02036,-0.02305 0.0011,-0.0011 c 0.876168,-1.022345 1.540175,-2.343741 1.719754,-3.739084 0.09036,-0.70186 0.05781,-1.486269 -0.289396,-2.234231 -0.362974,-0.78192 -1.06333,-1.40754 -1.948052,-1.695102 l -0.123797,-0.04073 -0.128084,-0.01984 h -0.0011 c -1.431434,-0.223898 -2.278868,-0.632513 -2.586329,-0.875687 -0.184891,-0.146227 -0.230583,-0.229236 -0.233658,-0.235801 -0.01171,-0.02503 -0.0074,0.03272 0.0021,-0.06592 -0.0049,0.05049 0.02187,-0.07598 0.103967,-0.207934 0.08209,-0.13196 0.209596,-0.292892 0.370318,-0.441597 0.331372,-0.306591 0.810496,-0.594841 1.301204,-0.721876 1.509857,-0.39088 2.663072,-0.710145 3.525252,-0.983941 0.830089,-0.263609 1.423682,-0.431034 1.997358,-0.872472 l 5.69e-4,-5.69e-4 c 0.125152,-0.09636 0.401434,-0.322818 0.57986,-0.706872 0.126848,-0.273058 0.153828,-0.554624 0.141484,-0.808162 -0.01243,-0.255832 -0.07015,-0.549369 -0.241698,-0.823696 -0.221295,-0.35396 -0.510018,-0.57519 -0.76261,-0.69562 -0.25259,-0.12043 -0.494138,-0.15806 -0.515548,-0.16346 -0.551637,-0.139111 -1.161878,-0.176571 -1.925545,-0.214361 l -0.03055,-0.005 -0.0284,-0.002 c -1.524773,-0.0921 -2.532592,-0.36932 -3.026852,-0.62274 -0.275989,-0.1415 -0.408199,-0.24859 -0.471068,-0.32047 -0.06286,-0.0719 -0.08355,-0.11826 -0.118975,-0.25724 -0.02744,-0.10768 -0.0051,-0.62315 0.213297,-1.22886 0.220474,-0.61142 0.598466,-1.3563 1.086834,-2.12384 0.989699,-1.55542 2.330977,-3.2129 3.260513,-4.6855 0.453562,-0.71858 0.884084,-1.43993 1.0102,-2.33178 0.06823,-0.4828 0.02905,-1.09113 -0.318334,-1.64954 -0.352198,-0.56624 -0.906317,-0.88705 -1.433037,-1.03808 l 0.0493,0.0166 -0.03323,-0.0128 -0.107184,-0.0279 -0.07234,-0.0134 -0.007,-0.002 -0.0075,-0.002 c -1.152562,-0.19463 -2.445888,-0.0959 -3.73962,-0.0492 -1.295954,0.0467 -2.630394,0.0448 -3.352158,-0.10022 -0.157384,-0.0316 -0.28532,-0.075 -0.386926,-0.11468 0.01143,-0.0475 0.0043,-0.0252 0.02731,-0.0884 0.06385,-0.17382 0.171428,-0.41371 0.334947,-0.6983 0.331297,-0.57659 0.888383,-1.36551 1.748158,-2.32909 4.193032,-4.27445 8.082031,-9.31653 10.095657,-12.23652 l 0.08896,-0.12862 0.0028,-0.15649 c 0.01882,-1.08521 0.371411,-3.58134 0.423297,-4.16625 z m -2.7152,39.677062 0.02626,-0.01984 0.02412,-0.02464 z m 25.208401,23.512759 -0.03001,0.0182 0.0037,-0.0014 0.0059,-0.0033 z m -0.03001,0.0182 c -0.0046,0.0024 -8.19e-4,4.74e-4 -0.0064,0.0038 0.002,-9.29e-4 0.0041,-0.0024 0.0059,-0.0033 z M 45.291574,-132.86045 c -0.08028,0.84703 -0.157505,1.52863 -0.179533,2.22833 -1.993026,2.8757 -5.912135,7.87193 -10.008225,12.04525 l -0.0054,0.006 -0.0048,0.006 c -0.02659,0.0287 -0.027,0.0294 -0.0021,0.003 l -0.0037,0.004 -0.0032,0.004 c -0.898504,1.00699 -1.496194,1.84649 -1.873562,2.50327 -0.191235,0.33283 -0.322567,0.62239 -0.408905,0.85746 -0.08634,0.23507 -0.136098,0.36918 -0.1388,0.58737 -9.29e-4,0.0714 0.0023,0.12627 0.007,0.16827 0.0014,0.0138 0.0023,0.0206 0.0038,0.0289 -9.29e-4,-0.006 -0.0014,-0.0105 -0.0029,-0.0257 -4.74e-4,-0.008 -0.0014,-0.0392 -0.0014,-0.0391 0,1e-5 9.29e-4,-0.007 9.29e-4,-0.008 0.0029,0.0279 0.01503,0.13985 0.01503,0.13988 10e-6,3e-5 0.01389,0.0439 0.01394,0.0439 1.19e-4,2.8e-4 0.02015,0.0494 0.01717,0.0429 0.0023,0.005 0.02451,0.0464 0.02465,0.0466 2.8e-5,6e-5 0.03214,0.0482 0.03214,0.0482 1e-5,1e-5 0.03859,0.0456 0.03859,0.0456 1e-5,0 0.05443,0.0459 0.07449,0.0627 -4.74e-4,-5.7e-4 -0.0048,-0.003 -0.0048,-0.003 6.7e-5,5e-5 -0.03556,-0.0288 -0.04286,-0.0354 0.01996,0.0192 0.04599,0.0432 0.08521,0.0756 0.137083,0.11309 0.232325,0.15063 0.396039,0.21758 0.163722,0.067 0.369327,0.13327 0.61041,0.18168 0.939998,0.18878 2.277759,0.16742 3.593852,0.12004 1.316462,-0.0475 2.567126,-0.12696 3.529004,0.0354 1.57e-4,2e-5 2.74e-4,-3e-5 5.7e-4,0 l 0.0343,0.007 0.0081,0.002 0.02198,0.006 c 0.336912,0.0966 0.653704,0.2924 0.83817,0.58897 0.185559,0.29828 0.216194,0.64792 0.172566,0.95661 -0.09055,0.64033 -0.418695,1.22402 -0.860146,1.92341 -0.875104,1.38637 -2.22116,3.05218 -3.258366,4.68229 -0.520631,0.81824 -0.930771,1.61688 -1.187588,2.32909 -0.258878,0.71793 -0.377661,1.30943 -0.243306,1.83658 0.05535,0.21717 0.154931,0.4682 0.343521,0.68383 0.188593,0.21563 0.438501,0.38615 0.778685,0.560571 0.710658,0.36437 1.820658,0.63757 3.4379,0.73527 l 0.0091,5.7e-4 c 0.788841,0.0384 1.350153,0.0815 1.783528,0.19079 0.1479,0.0373 0.21978,0.045 0.323158,0.09432 0.103378,0.0493 0.212638,0.122161 0.329588,0.309226 0.0494,0.079 0.0785,0.186169 0.08521,0.324229 0.0069,0.140353 -0.01155,0.244971 -0.04662,0.320478 -0.07888,0.169789 -0.173835,0.247138 -0.271177,0.322083 l -0.0011,0.0011 c -0.398115,0.306149 -0.838789,0.439143 -1.678488,0.705801 -0.829216,0.263329 -1.9699,0.579219 -3.471125,0.967863 -0.690545,0.17877 -1.293598,0.547096 -1.745477,0.965185 -0.230901,0.213633 -0.412516,0.439282 -0.546635,0.654889 -0.134116,0.215603 -0.230605,0.397685 -0.255632,0.654886 -0.01731,0.177936 0.0017,0.415557 0.09111,0.606657 0.09818,0.209565 0.266394,0.401264 0.529483,0.609338 0.548728,0.433993 1.518552,0.844304 3.070262,1.086836 h 5.69e-4 l 0.04502,0.007 0.04341,0.01446 h 0.0011 c 0.615229,0.199582 1.092776,0.637298 1.32907,1.146323 0.240816,0.518773 0.275404,1.091093 0.201506,1.66509 -0.148148,1.151115 -0.723239,2.313939 -1.47752,3.194593 -2.75e-4,5.69e-4 -5.69e-4,0.0011 -0.0011,0.0017 l -0.01125,0.01073 -0.0097,0.01125 -0.0028,0.0028 c -2.60302,2.718808 -3.904982,6.337719 -2.86179,9.216677 0.518553,1.431063 1.613197,2.727322 3.516679,3.705319 1.907164,0.979894 4.632591,1.629569 8.342062,1.701534 10.11199,0.196165 15.522246,-2.0948 19.624693,-4.486686 l 0.0011,-4.75e-4 c 0.0011,-4.74e-4 0.0028,-9.29e-4 0.0037,-0.0014 l 0.007,-0.0043 0.0085,-0.0048 c 0.0017,-9.29e-4 0.0052,-0.0033 0.007,-0.0043 2.672849,-1.467103 9.777379,-6.334962 13.11064,-10.479827 l -0.01553,0.01233 c 0.148049,-0.116657 0.259712,-0.245625 0.439451,-0.45285 0.17974,-0.207221 0.398464,-0.475095 0.642028,-0.789937 0.484123,-0.625807 1.086151,-1.447859 1.764771,-2.400367 h 4.74e-4 c 3.651897,-5.135439 6.542262,-9.50879 10.066543,-14.776596 l 4.74e-4,-5.6e-4 v -5.8e-4 c 0.155668,-0.23413 0.363482,-0.53192 0.567532,-0.82423 0.36013,0.10753 0.767751,0.19826 1.228856,0.28296 -0.442463,0.63845 -2.926013,4.26839 -6.249312,9.135219 -1.712695,2.508163 -3.442532,5.017822 -4.817881,6.957795 -0.687651,0.969953 -1.287058,1.797861 -1.749765,2.410547 -0.231429,0.306445 -0.428595,0.559149 -0.584147,0.747067 -0.158493,0.191465 -0.257478,0.29674 -0.315654,0.343521 l -0.02305,0.02035 0.334946,0.399258 -0.372996,-0.35585 c -3.540354,4.41338 -10.577203,9.191176 -13.444517,10.768693 h -5.68e-4 c -0.06138,0.03385 -0.07783,0.04494 -0.03108,0.01929 l -0.01553,0.0081 -0.01073,0.007 c -4.208418,2.449489 -9.924678,4.828628 -20.199221,4.629314 -3.832661,-0.07436 -6.728938,-0.741661 -8.848505,-1.830689 -2.116928,-1.087667 -3.453427,-2.621738 -4.076172,-4.340377 -1.243601,-3.432015 0.278862,-7.429134 3.080978,-10.374793 l 0.0097,-0.01018 0.0091,-0.01073 c 0.607775,-0.71166 1.093898,-1.72331 1.204741,-2.584186 v -5.68e-4 c 0.05544,-0.431005 0.02981,-0.741257 -0.103434,-1.028424 v -5.69e-4 c -0.03177,-0.06848 -0.0789,-0.196706 -0.21651,-0.318335 -0.13777,-0.121768 -0.254168,-0.154086 -0.378357,-0.197751 l -0.04287,-0.01501 -0.04449,-0.0075 c -1.597059,-0.264209 -2.721965,-0.697382 -3.475947,-1.293702 -0.766577,-0.606282 -1.130479,-1.458978 -1.054682,-2.237984 0.156456,-1.607861 1.660701,-2.830263 3.411637,-3.283556 0.499638,-0.129347 0.777256,-0.215138 1.130782,-0.314581 l -0.05734,-1.011274 c -0.720803,-0.117057 -1.371447,-0.267985 -1.81354,-0.494649 -0.917621,-0.470475 -1.51163,-1.188526 -1.715465,-1.988246 -0.417444,-1.63781 0.48248,-3.35587 1.575055,-5.07298 1.087722,-1.70949 2.445471,-3.3955 3.255689,-4.67908 0.201621,-0.31942 0.360374,-0.61476 0.474822,-0.86069 0.0457,-0.0982 0.05417,-0.14037 0.0627,-0.16185 l 0.257777,-0.64738 -0.694546,-0.0611 c -0.701127,-0.0615 -1.670027,-0.0544 -2.823742,-0.0128 -1.326737,0.0478 -2.712267,0.0896 -3.862346,-0.14148 -0.576019,-0.1157 -1.092119,-0.29263 -1.515031,-0.64149 -0.40946,-0.33774 -0.69013,-0.90318 -0.682758,-1.49789 0.01555,-1.23672 0.847624,-2.61119 2.714414,-4.70319 l 0.0054,-0.006 0.0075,-0.009 0.0059,-0.006 0.0037,-0.004 c 4.572791,-4.64857 9.601996,-11.50975 11.049097,-13.50197 z m -4.151739,33.698911 -0.05627,-0.006 0.0343,0.006 z m -8.325988,-15.680891 c 0,0 0.363867,0.34861 0.370854,0.35531 -0.0043,-5.7e-4 -0.500701,-0.0543 -0.509116,-0.0553 0.0019,-0.0198 0.0038,-0.0407 0.0038,-0.0407 -4e-6,2e-5 0.03646,-0.11469 0.03646,-0.11469 l 0.03589,-0.066 0.06216,-0.0788 z m 0.369783,0.37621 c -0.0058,0.0385 -0.07342,0.49197 -0.07342,0.49197 l -0.03588,-0.007 c 0,0 -0.01366,-0.006 -0.01821,-0.006 0.0029,-0.0102 0.118816,-0.44545 0.127549,-0.47804 z m 34.440622,38.379605 c -6e-6,4e-6 -0.002,0.0014 -0.0021,0.0014 h -5.69e-4 z m 1.004303,1.953416 c -0.0061,0.0047 -0.02646,0.01665 -0.02787,0.01769 -0.0017,9.29e-4 -8.18e-4,2.76e-4 0.0059,-0.0043 0.0021,-0.0014 0.01219,-0.0075 0.02198,-0.01338 z"
           id="path20594"
           sodipodi:nodetypes="ccccccsssccssscssccccssccccccccssssccccccccsscccccccsssccccccccsccccsscssssccsccsscccssssssccccccccccsccscccccccccccccccccccccccccccssccccscsccscccccccscsccccsccsssssscssscsccssssscscccccsccccccssscsccccccsscccccccsssscccccccccssssccccccscccsssccssssscccccscccccccccccccccccccccccccccsccsccss" />
        <path
           id="path21102"
           style="color:#000000;fill:#31cba4;fill-opacity:1;stroke:none;stroke-width:0.265633;-inkscape-stroke:none"
           d="m 70.883372,-166.08854 -0.503704,0.21217 -0.266115,0.11205 c -0.503712,0.21166 -0.998992,0.43492 -1.487763,0.66451 l -0.611083,0.28687 0.206978,0.64273 c 1.617143,5.02866 2.493614,10.38941 2.493614,15.9587 0,15.88143 -7.102639,30.08346 -18.303954,39.6296 v 5.3e-4 l -0.513558,0.43886 0.368828,0.56492 c 0.295403,0.45228 0.599004,0.90026 0.914032,1.34199 l 0.483988,0.67853 0.637021,-0.53795 v -5.3e-4 c 11.949045,-10.12215 19.541162,-25.23961 19.541162,-42.11595 0,-5.96082 -0.950545,-11.70241 -2.70163,-17.08231 v -5.3e-4 z" />
      </g>
    </g>
  </g>
</svg>
